<svg width="16" height="12" viewBox="0 0 16 12" fill="none" xmlns="http://www.w3.org/2000/svg">
<path d="M15.2308 0H0.461538C0.339131 0 0.221737 0.0486262 0.135181 0.135181C0.0486262 0.221737 0 0.339131 0 0.461538V10.9231C0 11.2087 0.113461 11.4826 0.315424 11.6846C0.517386 11.8865 0.791305 12 1.07692 12H14.6154C14.901 12 15.1749 11.8865 15.3769 11.6846C15.5788 11.4826 15.6923 11.2087 15.6923 10.9231V0.461538C15.6923 0.339131 15.6437 0.221737 15.5571 0.135181C15.4706 0.0486262 15.3532 0 15.2308 0ZM7.84615 6.60462L1.64769 0.923077H14.0446L7.84615 6.60462ZM5.82077 6L0.923077 10.4892V1.51077L5.82077 6ZM6.50385 6.62615L7.53846 7.57077C7.62354 7.64861 7.73468 7.69178 7.85 7.69178C7.96532 7.69178 8.07646 7.64861 8.16154 7.57077L9.19231 6.62615L14.0446 11.0769H1.64846L6.50385 6.62615ZM9.87154 6L14.7692 1.51077V10.4892L9.87154 6Z" fill="black"/>
</svg>
