<svg xmlns="http://www.w3.org/2000/svg" xmlns:xlink="http://www.w3.org/1999/xlink" xmlns:sketch="http://www.bohemiancoding.com/sketch/ns" viewBox="0 0 25 31.25" version="1.1" x="0px" y="0px"><title>Rock Hand</title><desc>Created with Sketch.</desc><g stroke="none" stroke-width="1" fill="none" fill-rule="evenodd" sketch:type="MSPage"><g sketch:type="MSArtboardGroup" fill="#000000"><path d="M12.9999991,15.4978627 C12.9999997,15.4985751 13,15.4992875 13,15.5 C13,16.8807119 11.8783411,18 10.4929982,18 L10,18 L10,17 L10.4983244,17 C11.3288106,17 12,16.3284271 12,15.5 C12,14.6657972 11.3276769,14 10.4983244,14 L6.50167562,14 C5.67118943,14 5,14.6715729 5,15 L4.5,15 L4,15 L4,3.50357888 C4,2.12089044 5.10966206,1 6.5,1 C7.88071187,1 9,2.12005905 9,3.50357888 L9,6.49624549 C9.41661132,6.18457282 9.93514167,6 10.5,6 C11.3160391,6 12.0407592,6.39391716 12.4970507,6.99894898 C12.9513524,6.39235992 13.6764348,6 14.5,6 C15.062803,6 15.5821697,6.18736814 16,6.50213659 L16,4.5 C16,3.11928813 17.1096621,2 18.5,2 C19.8807119,2 21,3.12508893 21,4.5 L21,15 L20,15 L20,14 L20,15 L20,4.49824524 C20,3.6752491 19.3284271,3 18.5,3 C17.6657972,3 17,3.67078724 17,4.49824524 L17,10.7488133 L17,13.5023733 C17,14.8817744 15.8903379,16 14.5,16 C13.9371966,16 13.4178295,15.8126316 12.9999991,15.4978627 Z M12,13.4990671 C11.5805207,13.185196 11.0586356,13 10.4929982,13 L6.50700176,13 C5.94119959,13 5.4193818,13.1867053 5,13.467608 L5,13.467608 L5,3.47141783 C5,2.64201575 5.66579723,1.96965251 6.5,1.96965251 C7.32842712,1.96965251 8,2.6324067 8,3.47141783 L8,13 L8.5,13 L9,13 L9,8.50473881 C9,7.67369451 9.66579723,7 10.5,7 C11.3284271,7 12,7.66831553 12,8.50473881 L12,13.4990671 L12,13.4990671 Z M14.5,7 C15.3284271,7 16,7.66831553 16,8.50473881 L16,13.4952612 C16,14.3263055 15.3342028,15 14.5,15 C13.6715729,15 13,14.3316845 13,13.4952612 L13,11.0082397 L13,8.50473881 C13,7.67369451 13.6657972,7 14.5,7 Z M21,15 L4,15 L4,15.5049185 C4,20.1966224 7.80557963,24 12.5,24 C17.1944204,24 21,20.1966224 21,15.5049185 L21,15 Z M20,15 L5,15 L5,15.4488164 C5,19.61922 8.35786438,23 12.5,23 C16.6421356,23 20,19.61922 20,15.4488164 L20,15 L20,15 Z" sketch:type="MSShapeGroup"/></g></g><text x="0" y="40" fill="#000000" font-size="5px" font-weight="bold" font-family="'Helvetica Neue', Helvetica, Arial-Unicode, Arial, Sans-serif">Created by John Slater</text><text x="0" y="45" fill="#000000" font-size="5px" font-weight="bold" font-family="'Helvetica Neue', Helvetica, Arial-Unicode, Arial, Sans-serif">from the Noun Project</text></svg>