<svg width="16" height="16" viewBox="0 0 16 16" fill="none" xmlns="http://www.w3.org/2000/svg">
<path fill-rule="evenodd" clip-rule="evenodd" d="M5.9432 5.5752H8.9144V7.0552C9.3424 6.204 10.44 5.4392 12.0888 5.4392C15.2496 5.4392 16 7.1336 16 10.2424V16H12.8V10.9504C12.8 9.18 12.372 8.1816 11.2824 8.1816C9.7712 8.1816 9.1432 9.2576 9.1432 10.9496V16H5.9432V5.5752ZM0.456 15.864H3.656V5.4392H0.456V15.864ZM4.1144 2.04C4.11452 2.30822 4.06132 2.57379 3.95791 2.82127C3.85449 3.06875 3.70292 3.29321 3.512 3.4816C3.12512 3.8661 2.60145 4.08132 2.056 4.08C1.51151 4.07963 0.989049 3.86496 0.6016 3.4824C0.411369 3.29337 0.260309 3.06866 0.157075 2.82115C0.0538412 2.57363 0.000463305 2.30818 0 2.04C0 1.4984 0.216 0.98 0.6024 0.5976C0.989508 0.214527 1.51219 -0.000239369 2.0568 2.00212e-07C2.6024 2.00212e-07 3.1256 0.2152 3.512 0.5976C3.8976 0.98 4.1144 1.4984 4.1144 2.04Z" fill="white"/>
</svg>
