<svg width="42" height="42" viewBox="0 0 42 42" fill="none" xmlns="http://www.w3.org/2000/svg">
<path fill-rule="evenodd" clip-rule="evenodd" d="M28 24.5C30.3206 24.5 32.5462 25.4219 34.1872 27.0628C35.8281 28.7038 36.75 30.9294 36.75 33.25V36.75C36.75 37.2141 36.5656 37.6592 36.2374 37.9874C35.9093 38.3156 35.4641 38.5 35 38.5C34.5359 38.5 34.0907 38.3156 33.7626 37.9874C33.4344 37.6592 33.25 37.2141 33.25 36.75V33.25C33.25 31.8576 32.6969 30.5223 31.7123 29.5377C30.7277 28.5531 29.3924 28 28 28H14C12.6076 28 11.2723 28.5531 10.2877 29.5377C9.30312 30.5223 8.75 31.8576 8.75 33.25V36.75C8.75 37.2141 8.56563 37.6592 8.23744 37.9874C7.90925 38.3156 7.46413 38.5 7 38.5C6.53587 38.5 6.09075 38.3156 5.76256 37.9874C5.43437 37.6592 5.25 37.2141 5.25 36.75V33.25C5.25 30.9294 6.17187 28.7038 7.81282 27.0628C9.45376 25.4219 11.6794 24.5 14 24.5H28ZM35 14C35.4641 14 35.9093 14.1844 36.2374 14.5126C36.5656 14.8408 36.75 15.2859 36.75 15.75V17.5H38.5C38.9641 17.5 39.4092 17.6844 39.7374 18.0126C40.0656 18.3408 40.25 18.7859 40.25 19.25C40.25 19.7141 40.0656 20.1592 39.7374 20.4874C39.4092 20.8156 38.9641 21 38.5 21H36.75V22.75C36.75 23.2141 36.5656 23.6592 36.2374 23.9874C35.9093 24.3156 35.4641 24.5 35 24.5C34.5359 24.5 34.0907 24.3156 33.7626 23.9874C33.4344 23.6592 33.25 23.2141 33.25 22.75V21H31.5C31.0359 21 30.5907 20.8156 30.2626 20.4874C29.9344 20.1592 29.75 19.7141 29.75 19.25C29.75 18.7859 29.9344 18.3408 30.2626 18.0126C30.5907 17.6844 31.0359 17.5 31.5 17.5H33.25V15.75C33.25 15.2859 33.4344 14.8408 33.7626 14.5126C34.0907 14.1844 34.5359 14 35 14ZM21 3.5C23.3206 3.5 25.5462 4.42187 27.1872 6.06282C28.8281 7.70376 29.75 9.92936 29.75 12.25C29.75 14.5706 28.8281 16.7962 27.1872 18.4372C25.5462 20.0781 23.3206 21 21 21C18.6794 21 16.4538 20.0781 14.8128 18.4372C13.1719 16.7962 12.25 14.5706 12.25 12.25C12.25 9.92936 13.1719 7.70376 14.8128 6.06282C16.4538 4.42187 18.6794 3.5 21 3.5ZM21 7C20.3106 7 19.6279 7.1358 18.9909 7.39963C18.354 7.66347 17.7752 8.05018 17.2877 8.53769C16.8002 9.0252 16.4135 9.60395 16.1496 10.2409C15.8858 10.8779 15.75 11.5606 15.75 12.25C15.75 12.9394 15.8858 13.6221 16.1496 14.2591C16.4135 14.896 16.8002 15.4748 17.2877 15.9623C17.7752 16.4498 18.354 16.8365 18.9909 17.1004C19.6279 17.3642 20.3106 17.5 21 17.5C22.3924 17.5 23.7277 16.9469 24.7123 15.9623C25.6969 14.9777 26.25 13.6424 26.25 12.25C26.25 10.8576 25.6969 9.52226 24.7123 8.53769C23.7277 7.55312 22.3924 7 21 7Z" fill="white"/>
</svg>
